<?xml version="1.0" encoding="utf-8"?>
<!-- Generator: Adobe Illustrator 16.0.0, SVG Export Plug-In . SVG Version: 6.00 Build 0)  -->
<!DOCTYPE svg PUBLIC "-//W3C//DTD SVG 1.1//EN" "http://www.w3.org/Graphics/SVG/1.1/DTD/svg11.dtd">
<svg version="1.1" id="Layer_1" xmlns="http://www.w3.org/2000/svg" xmlns:xlink="http://www.w3.org/1999/xlink" x="0px" y="0px"
	 width="1080px" height="1080px" viewBox="0 0 1080 1080" enable-background="new 0 0 1080 1080" xml:space="preserve">
<polygon fill="#2E3192" points="798,410 798,589 223.93,589 220.18,617.73 191.46,589 95,589 95,410 "/>
<path fill="#F15A24" d="M1228.662,577.418c-23.354,0-42.301,18.946-42.301,42.302v310.204c0,23.353,18.947,42.3,42.301,42.3h366.605
	c23.354,0,42.301-18.947,42.301-42.3V619.72c0-23.355-18.947-42.302-42.301-42.302H1228.662z M1228.662,605.618h93.414
	c2.908,0,5.287,2.38,5.287,5.287v17.626c0,2.908-2.379,5.288-5.287,5.288H1219.85c-2.908,0-5.288-2.38-5.288-5.288v-8.812
	C1214.562,611.964,1220.906,605.618,1228.662,605.618z M1604.08,690.221h-384.23c-2.908,0-5.288-2.38-5.288-5.288v-31.725
	c0-2.908,2.38-5.288,5.288-5.288h121.613l26.614-39.922c0.97-1.498,2.646-2.38,4.407-2.38h222.783c7.756,0,14.1,6.346,14.1,14.102
	v65.213C1609.367,687.841,1606.988,690.221,1604.08,690.221z M1411.965,922.873c-58.34,0-105.752-47.413-105.752-105.75
	c0-58.342,47.412-105.753,105.752-105.753s105.752,47.411,105.752,105.753C1517.717,875.46,1470.305,922.873,1411.965,922.873z
	 M1411.965,739.571c-42.741,0-77.551,34.81-77.551,77.552c0,42.739,34.81,77.549,77.551,77.549c42.74,0,77.551-34.81,77.551-77.549
	C1489.516,774.381,1454.705,739.571,1411.965,739.571z M1369.664,831.222c-7.756,0-14.1-6.346-14.1-14.099
	c0-31.108,25.291-56.401,56.4-56.401c7.755,0,14.1,6.344,14.1,14.101c0,7.754-6.345,14.1-14.1,14.1
	c-15.51,0-28.201,12.689-28.201,28.201C1383.764,824.876,1377.42,831.222,1369.664,831.222z"/>
<path fill="#F7931E" d="M1739.285,578.149c-23.354,0-42.301,18.947-42.301,42.3v310.205c0,23.353,18.947,42.302,42.301,42.302
	h366.605c23.355,0,42.301-18.949,42.301-42.302V620.449c0-23.353-18.945-42.3-42.301-42.3H1739.285z M1739.285,606.351h93.414
	c2.908,0,5.289,2.379,5.289,5.287v17.626c0,2.907-2.381,5.287-5.289,5.287h-102.227c-2.908,0-5.287-2.38-5.287-5.287v-8.814
	C1725.186,612.694,1731.529,606.351,1739.285,606.351z M2114.703,690.952h-384.23c-2.908,0-5.287-2.379-5.287-5.289v-31.726
	c0-2.907,2.379-5.287,5.287-5.287h121.613l26.615-39.921c0.969-1.498,2.645-2.379,4.406-2.379h222.783
	c7.756,0,14.1,6.344,14.1,14.099v65.214C2119.99,688.573,2117.611,690.952,2114.703,690.952z M1922.588,923.605
	c-58.338,0-105.752-47.413-105.752-105.751c0-58.341,47.414-105.752,105.752-105.752c58.34,0,105.752,47.411,105.752,105.752
	C2028.34,876.192,1980.928,923.605,1922.588,923.605z M1922.588,740.302c-42.74,0-77.549,34.81-77.549,77.553
	c0,42.74,34.809,77.55,77.549,77.55s77.551-34.81,77.551-77.55C2000.139,775.111,1965.328,740.302,1922.588,740.302z
	 M1880.287,831.954c-7.756,0-14.1-6.346-14.1-14.1c0-31.11,25.291-56.403,56.4-56.403c7.756,0,14.1,6.346,14.1,14.102
	s-6.344,14.1-14.1,14.1c-15.51,0-28.199,12.691-28.199,28.202C1894.389,825.608,1888.043,831.954,1880.287,831.954z"/>
<path fill="#39B54A" d="M1228.662,111.218c-23.354,0-42.301,18.947-42.301,42.301v310.204c0,23.353,18.947,42.301,42.301,42.301
	h366.605c23.354,0,42.301-18.948,42.301-42.301V153.519c0-23.354-18.947-42.301-42.301-42.301H1228.662z M1228.662,139.419h93.414
	c2.908,0,5.287,2.379,5.287,5.287v17.625c0,2.908-2.379,5.288-5.287,5.288H1219.85c-2.908,0-5.288-2.379-5.288-5.288v-8.812
	C1214.562,145.763,1220.906,139.419,1228.662,139.419z M1604.08,224.021h-384.23c-2.908,0-5.288-2.38-5.288-5.289v-31.725
	c0-2.907,2.38-5.287,5.288-5.287h121.613l26.614-39.921c0.97-1.498,2.646-2.379,4.407-2.379h222.783c7.756,0,14.1,6.344,14.1,14.1
	v65.213C1609.367,221.641,1606.988,224.021,1604.08,224.021z M1411.965,456.673c-58.34,0-105.752-47.412-105.752-105.75
	c0-58.341,47.412-105.751,105.752-105.751s105.752,47.411,105.752,105.751C1517.717,409.261,1470.305,456.673,1411.965,456.673z
	 M1411.965,273.37c-42.741,0-77.551,34.81-77.551,77.552c0,42.74,34.81,77.551,77.551,77.551c42.74,0,77.551-34.811,77.551-77.551
	C1489.516,308.18,1454.705,273.37,1411.965,273.37z M1369.664,365.022c-7.756,0-14.1-6.345-14.1-14.1
	c0-31.109,25.291-56.402,56.4-56.402c7.755,0,14.1,6.346,14.1,14.101c0,7.754-6.345,14.1-14.1,14.1
	c-15.51,0-28.201,12.691-28.201,28.201C1383.764,358.677,1377.42,365.022,1369.664,365.022z"/>
<path fill="#29ABE2" d="M1739.285,111.949c-23.354,0-42.301,18.947-42.301,42.301v310.205c0,23.353,18.947,42.3,42.301,42.3h366.605
	c23.355,0,42.301-18.948,42.301-42.3V154.25c0-23.354-18.945-42.301-42.301-42.301H1739.285z M1739.285,140.151h93.414
	c2.908,0,5.289,2.379,5.289,5.287v17.625c0,2.908-2.381,5.287-5.289,5.287h-102.227c-2.908,0-5.287-2.379-5.287-5.287v-8.813
	C1725.186,146.495,1731.529,140.151,1739.285,140.151z M2114.703,224.752h-384.23c-2.908,0-5.287-2.38-5.287-5.289v-31.725
	c0-2.908,2.379-5.287,5.287-5.287h121.613l26.615-39.921c0.969-1.499,2.645-2.379,4.406-2.379h222.783c7.756,0,14.1,6.344,14.1,14.1
	v65.213C2119.99,222.372,2117.611,224.752,2114.703,224.752z M1922.588,457.404c-58.338,0-105.752-47.412-105.752-105.75
	c0-58.341,47.414-105.752,105.752-105.752c58.34,0,105.752,47.411,105.752,105.752
	C2028.34,409.992,1980.928,457.404,1922.588,457.404z M1922.588,274.102c-42.74,0-77.549,34.81-77.549,77.552
	c0,42.74,34.809,77.551,77.549,77.551s77.551-34.811,77.551-77.551C2000.139,308.911,1965.328,274.102,1922.588,274.102z
	 M1880.287,365.754c-7.756,0-14.1-6.346-14.1-14.1c0-31.108,25.291-56.401,56.4-56.401c7.756,0,14.1,6.345,14.1,14.101
	c0,7.755-6.344,14.1-14.1,14.1c-15.51,0-28.199,12.69-28.199,28.201C1894.389,359.408,1888.043,365.754,1880.287,365.754z"/>
<g>
	<path fill="#FFFFFF" d="M140.434,442.873v4.227h-18.406v13.403h15.73v4.227h-15.73v16.479h-5.217v-38.336H140.434z"/>
	<path fill="#FFFFFF" d="M166.25,481.209h-2.113c-0.464,0-0.839-0.071-1.124-0.213s-0.473-0.446-0.562-0.909l-0.535-2.515
		c-0.713,0.643-1.409,1.216-2.087,1.726c-0.678,0.508-1.391,0.936-2.14,1.284c-0.749,0.348-1.547,0.61-2.394,0.789
		c-0.848,0.178-1.789,0.268-2.823,0.268c-1.053,0-2.038-0.149-2.956-0.442c-0.919-0.296-1.717-0.738-2.395-1.33
		c-0.678-0.592-1.217-1.339-1.618-2.241c-0.401-0.905-0.602-1.974-0.602-3.208c0-1.074,0.294-2.107,0.883-3.1
		c0.589-0.993,1.538-1.875,2.849-2.645s3.027-1.4,5.15-1.893c2.122-0.492,4.717-0.738,7.785-0.738v-2.126
		c0-2.118-0.451-3.719-1.351-4.805c-0.901-1.086-2.234-1.629-4-1.629c-1.16,0-2.136,0.147-2.929,0.442
		c-0.794,0.294-1.481,0.624-2.06,0.989c-0.58,0.366-1.08,0.696-1.498,0.99c-0.419,0.294-0.834,0.441-1.244,0.441
		c-0.321,0-0.602-0.084-0.843-0.254s-0.433-0.378-0.575-0.628l-0.856-1.525c1.498-1.445,3.112-2.524,4.842-3.237
		c1.73-0.713,3.647-1.07,5.752-1.07c1.515,0,2.862,0.25,4.039,0.75c1.178,0.499,2.167,1.195,2.97,2.086
		c0.803,0.892,1.409,1.971,1.819,3.237c0.41,1.267,0.615,2.658,0.615,4.174V481.209z M153.89,478.294
		c0.838,0,1.605-0.084,2.301-0.254s1.351-0.41,1.966-0.723s1.204-0.69,1.766-1.137c0.561-0.445,1.11-0.954,1.645-1.524v-5.591
		c-2.194,0-4.058,0.139-5.591,0.417c-1.534,0.278-2.783,0.642-3.746,1.09c-0.963,0.449-1.663,0.978-2.1,1.587
		c-0.438,0.61-0.656,1.292-0.656,2.045c0,0.717,0.116,1.337,0.348,1.856c0.232,0.521,0.544,0.947,0.937,1.278
		c0.392,0.333,0.856,0.575,1.391,0.727C152.687,478.217,153.266,478.294,153.89,478.294z"/>
	<path fill="#FFFFFF" d="M180.268,487.817c0.107,0,0.231,0.031,0.375,0.093c0.142,0.062,0.312,0.134,0.508,0.214
		c0.196,0.08,0.437,0.151,0.723,0.215c0.285,0.062,0.616,0.093,0.99,0.093c0.749,0,1.314-0.147,1.699-0.442
		c0.383-0.293,0.575-0.673,0.575-1.136c0-0.339-0.098-0.625-0.294-0.856c-0.196-0.231-0.478-0.428-0.843-0.589
		c-0.366-0.16-0.816-0.293-1.351-0.4c-0.536-0.106-1.142-0.206-1.819-0.294l0.99-3.237c-1.481-0.197-2.849-0.646-4.107-1.351
		c-1.257-0.705-2.34-1.645-3.25-2.822c-0.909-1.178-1.623-2.577-2.14-4.2c-0.518-1.623-0.776-3.442-0.776-5.458
		c0-2.015,0.281-3.879,0.843-5.591c0.562-1.712,1.382-3.188,2.461-4.428c1.079-1.239,2.412-2.207,4-2.903
		c1.587-0.695,3.406-1.043,5.458-1.043c1.89,0,3.566,0.308,5.029,0.924c1.462,0.615,2.755,1.484,3.879,2.608l-1.257,1.712
		c-0.143,0.197-0.285,0.348-0.428,0.456c-0.143,0.106-0.348,0.16-0.615,0.16c-0.268,0-0.558-0.111-0.87-0.334
		c-0.312-0.223-0.708-0.468-1.19-0.736c-0.481-0.268-1.065-0.513-1.752-0.735c-0.687-0.223-1.53-0.335-2.528-0.335
		c-1.32,0-2.488,0.237-3.505,0.709c-1.017,0.473-1.868,1.155-2.555,2.047c-0.687,0.892-1.204,1.971-1.552,3.237
		c-0.348,1.266-0.521,2.684-0.521,4.253c0,1.641,0.188,3.099,0.562,4.374c0.374,1.275,0.9,2.346,1.578,3.21
		c0.678,0.865,1.502,1.525,2.475,1.98c0.972,0.455,2.064,0.682,3.277,0.682c1.159,0,2.113-0.138,2.862-0.414
		c0.749-0.277,1.374-0.584,1.873-0.923c0.5-0.339,0.91-0.647,1.231-0.924c0.321-0.277,0.642-0.415,0.963-0.415
		c0.195,0,0.37,0.04,0.521,0.12c0.152,0.08,0.281,0.192,0.388,0.336l1.338,1.738c-1.053,1.283-2.337,2.256-3.853,2.915
		c-1.516,0.661-3.139,1.061-4.869,1.205l-0.455,1.551c1.605,0.357,2.769,0.842,3.491,1.458c0.723,0.616,1.084,1.405,1.084,2.368
		c0,0.572-0.143,1.083-0.428,1.539c-0.285,0.455-0.682,0.843-1.19,1.163c-0.508,0.322-1.119,0.567-1.833,0.736
		c-0.714,0.169-1.498,0.254-2.354,0.254c-0.731,0-1.428-0.077-2.087-0.228c-0.66-0.151-1.267-0.352-1.819-0.602l0.455-1.471
		C179.76,487.978,179.964,487.817,180.268,487.817z"/>
	<path fill="#FFFFFF" d="M218.364,481.209h-2.114c-0.464,0-0.839-0.071-1.124-0.213s-0.472-0.446-0.561-0.909l-0.536-2.515
		c-0.713,0.643-1.409,1.216-2.086,1.726c-0.678,0.508-1.391,0.936-2.14,1.284c-0.75,0.348-1.547,0.61-2.394,0.789
		c-0.848,0.178-1.789,0.268-2.823,0.268c-1.053,0-2.038-0.149-2.956-0.442c-0.919-0.296-1.717-0.738-2.395-1.33
		c-0.677-0.592-1.216-1.339-1.618-2.241c-0.401-0.905-0.602-1.974-0.602-3.208c0-1.074,0.294-2.107,0.883-3.1
		c0.588-0.993,1.538-1.875,2.849-2.645c1.311-0.77,3.027-1.4,5.149-1.893c2.123-0.492,4.718-0.738,7.786-0.738v-2.126
		c0-2.118-0.451-3.719-1.352-4.805c-0.901-1.086-2.234-1.629-3.999-1.629c-1.16,0-2.136,0.147-2.93,0.442
		c-0.794,0.294-1.481,0.624-2.06,0.989c-0.58,0.366-1.08,0.696-1.498,0.99c-0.419,0.294-0.834,0.441-1.244,0.441
		c-0.321,0-0.602-0.084-0.843-0.254c-0.24-0.169-0.432-0.378-0.575-0.628l-0.856-1.525c1.498-1.445,3.112-2.524,4.842-3.237
		s3.647-1.07,5.752-1.07c1.515,0,2.862,0.25,4.04,0.75s2.167,1.195,2.969,2.086c0.803,0.892,1.409,1.971,1.819,3.237
		c0.411,1.267,0.616,2.658,0.616,4.174V481.209z M206.004,478.294c0.838,0,1.605-0.084,2.301-0.254
		c0.695-0.17,1.351-0.41,1.966-0.723c0.616-0.313,1.204-0.69,1.766-1.137c0.562-0.445,1.11-0.954,1.646-1.524v-5.591
		c-2.194,0-4.058,0.139-5.591,0.417c-1.534,0.278-2.783,0.642-3.746,1.09c-0.963,0.449-1.663,0.978-2.1,1.587
		c-0.438,0.61-0.655,1.292-0.655,2.045c0,0.717,0.116,1.337,0.347,1.856c0.232,0.521,0.544,0.947,0.937,1.278
		c0.392,0.333,0.856,0.575,1.391,0.727C204.8,478.217,205.379,478.294,206.004,478.294z"/>
	<path fill="#FFFFFF" d="M240.032,454.109v17.283c0,2.051,0.473,3.639,1.418,4.761c0.945,1.124,2.372,1.686,4.281,1.686
		c1.391,0,2.702-0.329,3.932-0.99c1.231-0.66,2.364-1.579,3.398-2.755v-19.984h4.762v27.1h-2.836c-0.678,0-1.106-0.329-1.284-0.989
		l-0.375-2.916c-1.177,1.302-2.497,2.35-3.959,3.143c-1.462,0.794-3.139,1.192-5.029,1.192c-1.481,0-2.787-0.246-3.919-0.736
		c-1.133-0.492-2.083-1.182-2.849-2.073c-0.767-0.892-1.342-1.971-1.726-3.238c-0.384-1.266-0.575-2.666-0.575-4.2v-17.283H240.032z
		"/>
	<path fill="#FFFFFF" d="M265.662,490.385v-36.276h2.835c0.678,0,1.105,0.33,1.284,0.99l0.401,3.21
		c1.159-1.409,2.483-2.542,3.973-3.397c1.489-0.856,3.205-1.284,5.149-1.284c1.552,0,2.961,0.299,4.227,0.896
		c1.266,0.598,2.346,1.481,3.237,2.649c0.892,1.168,1.579,2.618,2.06,4.347c0.481,1.73,0.722,3.719,0.722,5.966
		c0,1.998-0.267,3.857-0.803,5.578c-0.534,1.722-1.301,3.209-2.3,4.468c-1,1.256-2.225,2.247-3.679,2.97
		c-1.454,0.722-3.089,1.084-4.91,1.084c-1.676,0-3.107-0.278-4.293-0.83c-1.186-0.554-2.233-1.338-3.144-2.354v11.984H265.662z
		 M277.727,457.479c-1.552,0-2.912,0.357-4.08,1.071c-1.167,0.713-2.242,1.721-3.224,3.023v13.109
		c0.874,1.177,1.833,2.007,2.877,2.488c1.043,0.481,2.207,0.722,3.491,0.722c2.515,0,4.449-0.9,5.806-2.702
		c1.355-1.801,2.032-4.369,2.032-7.705c0-1.766-0.156-3.281-0.467-4.548c-0.314-1.266-0.763-2.305-1.352-3.116
		c-0.588-0.812-1.311-1.405-2.167-1.78C279.787,457.667,278.814,457.479,277.727,457.479z"/>
	<path fill="#FFFFFF" d="M300.493,441.803v39.406h-4.763v-39.406H300.493z"/>
	<path fill="#FFFFFF" d="M319.861,453.681c1.98,0,3.768,0.331,5.364,0.99c1.595,0.66,2.952,1.597,4.066,2.809
		c1.114,1.214,1.97,2.681,2.568,4.401c0.598,1.721,0.896,3.643,0.896,5.765c0,2.14-0.298,4.067-0.896,5.779
		s-1.454,3.175-2.568,4.387c-1.115,1.214-2.471,2.146-4.066,2.796c-1.597,0.65-3.384,0.978-5.364,0.978
		c-1.979,0-3.768-0.327-5.363-0.978c-1.597-0.65-2.958-1.582-4.08-2.796c-1.124-1.212-1.99-2.675-2.595-4.387
		c-0.607-1.712-0.911-3.639-0.911-5.779c0-2.123,0.303-4.044,0.911-5.765c0.604-1.721,1.471-3.188,2.595-4.401
		c1.123-1.212,2.483-2.149,4.08-2.809C316.094,454.011,317.882,453.681,319.861,453.681z M319.861,477.865
		c2.675,0,4.672-0.896,5.992-2.688c1.321-1.792,1.98-4.293,1.98-7.504c0-3.228-0.659-5.743-1.98-7.544
		c-1.32-1.801-3.317-2.702-5.992-2.702c-1.356,0-2.533,0.232-3.531,0.696c-1,0.464-1.832,1.132-2.501,2.006
		c-0.669,0.875-1.169,1.949-1.499,3.224c-0.33,1.275-0.495,2.715-0.495,4.32s0.165,3.041,0.495,4.307
		c0.329,1.266,0.829,2.332,1.499,3.197c0.669,0.865,1.502,1.53,2.501,1.993C317.329,477.634,318.505,477.865,319.861,477.865z"/>
	<path fill="#FFFFFF" d="M358.546,481.209h-2.114c-0.463,0-0.838-0.071-1.124-0.213c-0.286-0.142-0.473-0.446-0.562-0.909
		l-0.535-2.515c-0.714,0.643-1.41,1.216-2.087,1.726c-0.678,0.508-1.392,0.936-2.141,1.284c-0.748,0.348-1.546,0.61-2.394,0.789
		c-0.847,0.178-1.789,0.268-2.823,0.268c-1.053,0-2.038-0.149-2.956-0.442c-0.919-0.296-1.717-0.738-2.395-1.33
		c-0.678-0.592-1.217-1.339-1.619-2.241c-0.401-0.905-0.602-1.974-0.602-3.208c0-1.074,0.294-2.107,0.883-3.1
		c0.588-0.993,1.539-1.875,2.849-2.645s3.027-1.4,5.149-1.893c2.123-0.492,4.717-0.738,7.786-0.738v-2.126
		c0-2.118-0.451-3.719-1.351-4.805c-0.902-1.086-2.235-1.629-4-1.629c-1.16,0-2.136,0.147-2.93,0.442
		c-0.794,0.294-1.481,0.624-2.06,0.989c-0.579,0.366-1.08,0.696-1.499,0.99c-0.419,0.294-0.834,0.441-1.244,0.441
		c-0.32,0-0.602-0.084-0.843-0.254c-0.24-0.169-0.432-0.378-0.575-0.628l-0.856-1.525c1.499-1.445,3.112-2.524,4.843-3.237
		c1.729-0.713,3.646-1.07,5.751-1.07c1.517,0,2.863,0.25,4.04,0.75s2.167,1.195,2.969,2.086c0.803,0.892,1.409,1.971,1.819,3.237
		c0.41,1.267,0.616,2.658,0.616,4.174V481.209z M346.186,478.294c0.838,0,1.605-0.084,2.301-0.254s1.351-0.41,1.967-0.723
		c0.615-0.313,1.203-0.69,1.765-1.137c0.562-0.445,1.109-0.954,1.646-1.524v-5.591c-2.193,0-4.058,0.139-5.592,0.417
		c-1.534,0.278-2.782,0.642-3.746,1.09c-0.963,0.449-1.663,0.978-2.1,1.587c-0.437,0.61-0.655,1.292-0.655,2.045
		c0,0.717,0.116,1.337,0.348,1.856c0.231,0.521,0.543,0.947,0.936,1.278c0.392,0.333,0.856,0.575,1.391,0.727
		C344.983,478.217,345.563,478.294,346.186,478.294z"/>
	<path fill="#FFFFFF" d="M384.843,481.209c-0.678,0-1.106-0.329-1.284-0.989l-0.428-3.291c-1.159,1.41-2.483,2.537-3.973,3.384
		c-1.489,0.847-3.196,1.272-5.123,1.272c-1.552,0-2.96-0.3-4.227-0.896c-1.266-0.598-2.346-1.477-3.237-2.636
		c-0.892-1.159-1.579-2.604-2.06-4.334c-0.481-1.73-0.722-3.719-0.722-5.965c0-1.998,0.267-3.857,0.803-5.578
		c0.535-1.721,1.306-3.215,2.313-4.481c1.007-1.266,2.233-2.26,3.679-2.983c1.444-0.722,3.085-1.083,4.923-1.083
		c1.659,0,3.076,0.281,4.253,0.843s2.229,1.351,3.156,2.368v-15.035h4.763v39.406H384.843z M375.614,477.731
		c1.552,0,2.911-0.355,4.08-1.069c1.167-0.714,2.243-1.721,3.223-3.023V460.53c-0.874-1.177-1.832-2.001-2.876-2.475
		c-1.043-0.473-2.198-0.709-3.464-0.709c-2.532,0-4.477,0.901-5.832,2.702c-1.355,1.802-2.033,4.37-2.033,7.705
		c0,1.765,0.151,3.277,0.455,4.534s0.749,2.292,1.338,3.103c0.588,0.813,1.311,1.405,2.167,1.78
		C373.527,477.545,374.507,477.731,375.614,477.731z"/>
	<path fill="#FFFFFF" d="M425.079,481.209c-0.678,0-1.106-0.329-1.284-0.989l-0.428-3.291c-1.159,1.41-2.483,2.537-3.973,3.384
		c-1.489,0.847-3.196,1.272-5.123,1.272c-1.552,0-2.96-0.3-4.227-0.896c-1.266-0.598-2.346-1.477-3.237-2.636
		c-0.892-1.159-1.579-2.604-2.06-4.334c-0.481-1.73-0.722-3.719-0.722-5.965c0-1.998,0.267-3.857,0.803-5.578
		c0.535-1.721,1.306-3.215,2.313-4.481c1.007-1.266,2.233-2.26,3.679-2.983c1.444-0.722,3.085-1.083,4.923-1.083
		c1.659,0,3.076,0.281,4.253,0.843s2.229,1.351,3.156,2.368v-15.035h4.763v39.406H425.079z M415.849,477.731
		c1.552,0,2.912-0.355,4.08-1.069c1.167-0.714,2.243-1.721,3.223-3.023V460.53c-0.874-1.177-1.832-2.001-2.876-2.475
		c-1.043-0.473-2.198-0.709-3.464-0.709c-2.532,0-4.477,0.901-5.832,2.702c-1.355,1.802-2.033,4.37-2.033,7.705
		c0,1.765,0.151,3.277,0.455,4.534c0.303,1.257,0.749,2.292,1.338,3.103c0.588,0.813,1.311,1.405,2.167,1.78
		C413.763,477.545,414.743,477.731,415.849,477.731z"/>
	<path fill="#FFFFFF" d="M446.641,453.681c1.623,0,3.121,0.272,4.495,0.816c1.373,0.544,2.559,1.329,3.558,2.354
		c1,1.026,1.78,2.292,2.341,3.799c0.561,1.507,0.843,3.224,0.843,5.149c0,0.75-0.08,1.249-0.242,1.498
		c-0.16,0.25-0.463,0.375-0.909,0.375h-18.031c0.036,1.712,0.268,3.202,0.696,4.468c0.428,1.266,1.016,2.323,1.766,3.169
		c0.75,0.847,1.641,1.481,2.675,1.9c1.035,0.419,2.195,0.628,3.479,0.628c1.194,0,2.225-0.138,3.09-0.414
		c0.865-0.277,1.609-0.576,2.233-0.896c0.625-0.323,1.146-0.621,1.565-0.897c0.419-0.277,0.78-0.415,1.083-0.415
		c0.392,0,0.695,0.151,0.91,0.456l1.337,1.738c-0.588,0.713-1.293,1.333-2.113,1.859c-0.821,0.526-1.699,0.958-2.635,1.297
		c-0.938,0.339-1.905,0.593-2.903,0.763c-1,0.169-1.989,0.255-2.97,0.255c-1.873,0-3.599-0.318-5.177-0.951s-2.943-1.56-4.093-2.783
		c-1.149-1.221-2.046-2.732-2.688-4.534c-0.641-1.801-0.962-3.87-0.962-6.206c0-1.891,0.289-3.656,0.869-5.297
		c0.58-1.641,1.413-3.063,2.501-4.267c1.087-1.204,2.416-2.149,3.986-2.836C442.913,454.024,444.679,453.681,446.641,453.681z
		 M446.748,457.186c-2.3,0-4.111,0.665-5.431,1.994c-1.32,1.328-2.14,3.17-2.461,5.524h14.742c0-1.105-0.152-2.118-0.455-3.037
		c-0.303-0.918-0.749-1.712-1.338-2.381c-0.588-0.668-1.306-1.186-2.153-1.551S447.836,457.186,446.748,457.186z"/>
	<path fill="#FFFFFF" d="M480.642,445.602c0,0.463-0.094,0.896-0.281,1.297c-0.188,0.401-0.437,0.758-0.75,1.07
		c-0.312,0.313-0.673,0.558-1.083,0.736c-0.412,0.179-0.848,0.268-1.312,0.268c-0.463,0-0.896-0.089-1.297-0.268
		c-0.401-0.178-0.758-0.423-1.069-0.736c-0.313-0.312-0.558-0.668-0.736-1.07c-0.179-0.401-0.268-0.834-0.268-1.297
		c0-0.464,0.089-0.905,0.268-1.325c0.178-0.418,0.423-0.784,0.736-1.097c0.311-0.312,0.668-0.557,1.069-0.735
		c0.401-0.179,0.834-0.268,1.297-0.268c0.464,0,0.9,0.089,1.312,0.268c0.409,0.178,0.771,0.423,1.083,0.735
		c0.313,0.313,0.562,0.678,0.75,1.097C480.548,444.697,480.642,445.138,480.642,445.602z M479.571,454.109v27.1h-4.761v-27.1
		H479.571z"/>
	<path fill="#FFFFFF" d="M487.972,481.209v-27.1h2.836c0.678,0,1.106,0.33,1.284,0.99l0.348,2.782
		c0.998-1.23,2.118-2.238,3.357-3.022c1.239-0.785,2.679-1.178,4.32-1.178c1.837,0,3.322,0.509,4.455,1.525
		c1.133,1.016,1.949,2.391,2.448,4.12c0.375-0.98,0.87-1.828,1.484-2.542c0.616-0.713,1.306-1.302,2.073-1.765
		c0.768-0.464,1.583-0.803,2.448-1.017c0.864-0.214,1.743-0.321,2.636-0.321c1.427,0,2.697,0.228,3.813,0.683
		c1.113,0.455,2.06,1.119,2.835,1.993s1.369,1.949,1.779,3.224c0.41,1.275,0.615,2.733,0.615,4.374v17.255h-4.762v-17.255
		c0-2.122-0.465-3.732-1.392-4.829c-0.928-1.097-2.273-1.646-4.039-1.646c-0.785,0-1.53,0.139-2.234,0.415
		c-0.704,0.277-1.324,0.683-1.859,1.217c-0.535,0.535-0.959,1.208-1.271,2.02c-0.313,0.812-0.468,1.752-0.468,2.822v17.255h-4.762
		v-17.255c0-2.176-0.438-3.799-1.311-4.869c-0.874-1.07-2.149-1.605-3.826-1.605c-1.177,0-2.269,0.317-3.277,0.95
		c-1.007,0.633-1.93,1.494-2.768,2.582v20.198H487.972z"/>
	<path fill="#FFFFFF" d="M551.805,481.209h-2.113c-0.465,0-0.84-0.071-1.125-0.213s-0.473-0.446-0.561-0.909l-0.535-2.515
		c-0.713,0.643-1.41,1.216-2.086,1.726c-0.68,0.508-1.393,0.936-2.143,1.284c-0.748,0.348-1.547,0.61-2.393,0.789
		c-0.848,0.178-1.789,0.268-2.822,0.268c-1.054,0-2.038-0.149-2.957-0.442c-0.919-0.296-1.716-0.738-2.395-1.33
		c-0.678-0.592-1.217-1.339-1.618-2.241c-0.401-0.905-0.602-1.974-0.602-3.208c0-1.074,0.295-2.107,0.883-3.1
		c0.588-0.993,1.538-1.875,2.849-2.645c1.312-0.77,3.027-1.4,5.15-1.893c2.122-0.492,4.717-0.738,7.786-0.738v-2.126
		c0-2.118-0.451-3.719-1.352-4.805c-0.9-1.086-2.234-1.629-4-1.629c-1.159,0-2.135,0.147-2.929,0.442
		c-0.794,0.294-1.48,0.624-2.06,0.989c-0.58,0.366-1.08,0.696-1.499,0.99c-0.419,0.294-0.834,0.441-1.244,0.441
		c-0.32,0-0.602-0.084-0.843-0.254c-0.24-0.169-0.433-0.378-0.574-0.628l-0.856-1.525c1.499-1.445,3.112-2.524,4.843-3.237
		c1.729-0.713,3.646-1.07,5.75-1.07c1.518,0,2.863,0.25,4.041,0.75s2.166,1.195,2.969,2.086c0.803,0.892,1.408,1.971,1.818,3.237
		c0.41,1.267,0.617,2.658,0.617,4.174V481.209z M539.444,478.294c0.838,0,1.605-0.084,2.302-0.254c0.695-0.17,1.35-0.41,1.965-0.723
		s1.203-0.69,1.766-1.137c0.563-0.445,1.109-0.954,1.646-1.524v-5.591c-2.193,0-4.059,0.139-5.592,0.417
		c-1.535,0.278-2.782,0.642-3.747,1.09c-0.962,0.449-1.663,0.978-2.1,1.587c-0.437,0.61-0.654,1.292-0.654,2.045
		c0,0.717,0.115,1.337,0.348,1.856c0.231,0.521,0.543,0.947,0.936,1.278c0.393,0.333,0.856,0.575,1.391,0.727
		C538.241,478.217,538.82,478.294,539.444,478.294z"/>
	<path fill="#FFFFFF" d="M568.148,453.654c1.178,0,2.277,0.129,3.305,0.388c1.025,0.259,1.957,0.638,2.795,1.137h7.357v1.766
		c0,0.589-0.375,0.963-1.123,1.124l-3.078,0.428c0.607,1.159,0.91,2.452,0.91,3.879c0,1.32-0.254,2.519-0.762,3.598
		c-0.51,1.08-1.213,2.002-2.113,2.769c-0.902,0.767-1.971,1.356-3.211,1.766c-1.238,0.41-2.6,0.615-4.08,0.615
		c-1.266,0-2.461-0.151-3.584-0.455c-0.572,0.369-1.004,0.765-1.299,1.189c-0.293,0.424-0.441,0.839-0.441,1.245
		c0,0.664,0.26,1.167,0.777,1.507c0.516,0.342,1.203,0.586,2.059,0.733c0.857,0.147,1.828,0.221,2.916,0.221c1.09,0,2.199,0,3.332,0
		s2.242,0.099,3.33,0.298c1.088,0.199,2.061,0.523,2.916,0.975c0.855,0.451,1.543,1.074,2.061,1.869
		c0.516,0.795,0.775,1.823,0.775,3.087c0,1.173-0.289,2.31-0.869,3.412c-0.58,1.102-1.414,2.08-2.502,2.938
		s-2.416,1.543-3.986,2.059c-1.57,0.514-3.344,0.771-5.322,0.771c-1.98,0-3.717-0.197-5.205-0.589
		c-1.488-0.394-2.725-0.92-3.705-1.58c-0.98-0.662-1.717-1.424-2.207-2.29c-0.49-0.866-0.736-1.772-0.736-2.718
		c0-1.34,0.424-2.477,1.271-3.415c0.848-0.937,2.012-1.683,3.492-2.236c-0.768-0.356-1.379-0.833-1.834-1.429
		c-0.455-0.596-0.682-1.394-0.682-2.391c0-0.392,0.07-0.797,0.215-1.215c0.141-0.418,0.361-0.833,0.654-1.243
		c0.295-0.409,0.656-0.801,1.084-1.175s0.928-0.703,1.498-0.988c-1.338-0.75-2.385-1.743-3.145-2.983
		c-0.758-1.24-1.135-2.688-1.135-4.347c0-1.32,0.252-2.52,0.762-3.598c0.508-1.079,1.217-1.998,2.127-2.756
		c0.91-0.757,1.992-1.341,3.25-1.752C565.273,453.859,566.65,453.654,568.148,453.654z M576.602,482.585
		c0-0.691-0.186-1.248-0.561-1.666s-0.883-0.74-1.525-0.968c-0.641-0.228-1.383-0.395-2.221-0.503
		c-0.838-0.11-1.721-0.165-2.648-0.165s-1.873,0-2.836,0s-1.881-0.12-2.756-0.361c-1.016,0.482-1.84,1.073-2.475,1.769
		c-0.633,0.696-0.949,1.528-0.949,2.492c0,0.607,0.156,1.175,0.469,1.702s0.789,0.982,1.432,1.365
		c0.641,0.385,1.449,0.688,2.422,0.912c0.971,0.224,2.115,0.336,3.438,0.336c1.283,0,2.434-0.119,3.451-0.356
		c1.016-0.235,1.875-0.572,2.58-1.009c0.705-0.436,1.244-0.955,1.619-1.554C576.416,483.976,576.602,483.313,576.602,482.585z
		 M568.148,467.967c0.963,0,1.814-0.134,2.555-0.401c0.74-0.268,1.359-0.642,1.859-1.124c0.5-0.481,0.875-1.057,1.123-1.725
		c0.25-0.669,0.375-1.405,0.375-2.207c0-1.659-0.504-2.979-1.51-3.959c-1.01-0.981-2.475-1.471-4.402-1.471
		c-1.908,0-3.365,0.49-4.373,1.471s-1.512,2.301-1.512,3.959c0,0.802,0.129,1.538,0.387,2.207c0.26,0.668,0.639,1.244,1.139,1.725
		c0.498,0.482,1.113,0.856,1.846,1.124C566.365,467.833,567.203,467.967,568.148,467.967z"/>
	<path fill="#FFFFFF" d="M597.096,453.681c1.623,0,3.119,0.272,4.494,0.816c1.373,0.544,2.559,1.329,3.557,2.354
		c1,1.026,1.781,2.292,2.342,3.799c0.563,1.507,0.844,3.224,0.844,5.149c0,0.75-0.08,1.249-0.242,1.498
		c-0.16,0.25-0.463,0.375-0.91,0.375h-18.031c0.037,1.712,0.27,3.202,0.697,4.468s1.016,2.323,1.766,3.169
		c0.748,0.847,1.641,1.481,2.674,1.9c1.035,0.419,2.195,0.628,3.479,0.628c1.195,0,2.225-0.138,3.09-0.414
		c0.865-0.277,1.609-0.576,2.234-0.896c0.625-0.323,1.145-0.621,1.564-0.897s0.781-0.415,1.084-0.415
		c0.391,0,0.695,0.151,0.91,0.456l1.336,1.738c-0.588,0.713-1.293,1.333-2.113,1.859s-1.697,0.958-2.635,1.297
		c-0.938,0.339-1.904,0.593-2.902,0.763c-1,0.169-1.988,0.255-2.969,0.255c-1.873,0-3.6-0.318-5.178-0.951s-2.943-1.56-4.094-2.783
		c-1.148-1.221-2.045-2.732-2.688-4.534c-0.643-1.801-0.963-3.87-0.963-6.206c0-1.891,0.289-3.656,0.869-5.297
		c0.58-1.641,1.412-3.063,2.502-4.267c1.086-1.204,2.416-2.149,3.984-2.836C593.367,454.024,595.133,453.681,597.096,453.681z
		 M597.201,457.186c-2.299,0-4.111,0.665-5.43,1.994c-1.32,1.328-2.141,3.17-2.463,5.524h14.742c0-1.105-0.152-2.118-0.455-3.037
		c-0.303-0.918-0.748-1.712-1.338-2.381c-0.588-0.668-1.307-1.186-2.154-1.551C599.258,457.369,598.291,457.186,597.201,457.186z"/>
	<path fill="#FFFFFF" d="M614.404,481.209v-27.1h2.836c0.678,0,1.105,0.33,1.283,0.99l0.375,2.942
		c1.178-1.302,2.492-2.354,3.947-3.157c1.453-0.803,3.133-1.204,5.041-1.204c1.48,0,2.787,0.246,3.92,0.736
		c1.133,0.491,2.078,1.186,2.836,2.086c0.758,0.901,1.332,1.985,1.725,3.25c0.393,1.267,0.59,2.667,0.59,4.2v17.255h-4.762v-17.255
		c0-2.051-0.469-3.642-1.404-4.775c-0.938-1.133-2.369-1.7-4.295-1.7c-1.408,0-2.725,0.339-3.945,1.017
		c-1.223,0.678-2.352,1.596-3.385,2.756v19.957H614.404z"/>
	<path fill="#FFFFFF" d="M659.668,458.577c-0.213,0.392-0.543,0.588-0.988,0.588c-0.268,0-0.572-0.098-0.91-0.294
		c-0.338-0.196-0.754-0.415-1.244-0.655s-1.074-0.464-1.752-0.669s-1.48-0.308-2.408-0.308c-0.803,0-1.525,0.103-2.166,0.308
		c-0.643,0.205-1.191,0.486-1.646,0.843c-0.453,0.357-0.803,0.771-1.043,1.244s-0.359,0.985-0.359,1.538
		c0,0.695,0.199,1.275,0.6,1.739c0.402,0.464,0.932,0.865,1.594,1.204c0.658,0.339,1.408,0.639,2.246,0.896
		c0.838,0.259,1.699,0.535,2.582,0.829c0.883,0.295,1.742,0.621,2.58,0.977c0.84,0.357,1.588,0.803,2.248,1.338
		s1.191,1.19,1.592,1.966c0.402,0.776,0.602,1.708,0.602,2.795c0,1.249-0.223,2.403-0.668,3.465c-0.447,1.062-1.105,1.98-1.98,2.756
		c-0.873,0.776-1.943,1.386-3.209,1.832c-1.268,0.445-2.729,0.669-4.387,0.669c-1.893,0-3.604-0.308-5.139-0.923
		c-1.533-0.616-2.834-1.405-3.904-2.368l1.123-1.819c0.143-0.232,0.311-0.412,0.508-0.536c0.195-0.125,0.455-0.187,0.777-0.187
		c0.318,0,0.658,0.125,1.016,0.374c0.355,0.251,0.789,0.527,1.297,0.829c0.508,0.305,1.123,0.581,1.846,0.83
		c0.723,0.251,1.627,0.375,2.715,0.375c0.928,0,1.74-0.121,2.436-0.362c0.695-0.24,1.275-0.564,1.738-0.976
		c0.465-0.409,0.809-0.883,1.031-1.418c0.223-0.534,0.334-1.105,0.334-1.711c0-0.749-0.201-1.369-0.602-1.859
		c-0.402-0.49-0.932-0.91-1.592-1.257s-1.414-0.65-2.262-0.91c-0.846-0.258-1.711-0.53-2.594-0.816
		c-0.885-0.285-1.748-0.611-2.596-0.977c-0.848-0.365-1.602-0.824-2.26-1.377c-0.66-0.553-1.191-1.235-1.592-2.047
		c-0.402-0.812-0.602-1.796-0.602-2.956c0-1.035,0.213-2.029,0.641-2.983c0.428-0.954,1.053-1.792,1.873-2.515
		c0.82-0.723,1.828-1.298,3.023-1.726c1.195-0.428,2.559-0.642,4.094-0.642c1.783,0,3.383,0.282,4.801,0.843
		c1.418,0.562,2.645,1.333,3.68,2.314L659.668,458.577z"/>
	<path fill="#FFFFFF" d="M688.428,453.681c1.623,0,3.119,0.272,4.494,0.816c1.373,0.544,2.559,1.329,3.557,2.354
		c1,1.026,1.781,2.292,2.342,3.799c0.563,1.507,0.844,3.224,0.844,5.149c0,0.75-0.08,1.249-0.242,1.498
		c-0.16,0.25-0.463,0.375-0.91,0.375h-18.029c0.035,1.712,0.268,3.202,0.695,4.468s1.016,2.323,1.766,3.169
		c0.748,0.847,1.641,1.481,2.674,1.9c1.035,0.419,2.195,0.628,3.479,0.628c1.195,0,2.225-0.138,3.09-0.414
		c0.865-0.277,1.609-0.576,2.234-0.896c0.625-0.323,1.146-0.621,1.564-0.897c0.42-0.277,0.781-0.415,1.084-0.415
		c0.391,0,0.695,0.151,0.91,0.456l1.336,1.738c-0.588,0.713-1.293,1.333-2.113,1.859s-1.697,0.958-2.635,1.297
		c-0.936,0.339-1.904,0.593-2.902,0.763c-1,0.169-1.988,0.255-2.969,0.255c-1.873,0-3.6-0.318-5.178-0.951s-2.943-1.56-4.094-2.783
		c-1.148-1.221-2.045-2.732-2.688-4.534c-0.643-1.801-0.963-3.87-0.963-6.206c0-1.891,0.289-3.656,0.869-5.297
		c0.58-1.641,1.412-3.063,2.502-4.267c1.086-1.204,2.416-2.149,3.984-2.836C684.699,454.024,686.465,453.681,688.428,453.681z
		 M688.533,457.186c-2.299,0-4.111,0.665-5.43,1.994c-1.32,1.328-2.141,3.17-2.463,5.524h14.742c0-1.105-0.152-2.118-0.455-3.037
		c-0.303-0.918-0.748-1.712-1.338-2.381c-0.588-0.668-1.307-1.186-2.154-1.551C690.59,457.369,689.623,457.186,688.533,457.186z"/>
	<path fill="#FFFFFF" d="M705.736,481.209v-27.1h2.836c0.678,0,1.105,0.33,1.283,0.99l0.348,2.782
		c0.998-1.23,2.119-2.238,3.357-3.022c1.24-0.785,2.68-1.178,4.32-1.178c1.838,0,3.322,0.509,4.455,1.525
		c1.133,1.016,1.949,2.391,2.447,4.12c0.375-0.98,0.871-1.828,1.484-2.542c0.617-0.713,1.307-1.302,2.074-1.765
		c0.768-0.464,1.582-0.803,2.447-1.017c0.865-0.214,1.744-0.321,2.637-0.321c1.426,0,2.697,0.228,3.813,0.683
		c1.113,0.455,2.059,1.119,2.834,1.993s1.369,1.949,1.779,3.224c0.41,1.275,0.615,2.733,0.615,4.374v17.255h-4.762v-17.255
		c0-2.122-0.465-3.732-1.391-4.829c-0.928-1.097-2.273-1.646-4.039-1.646c-0.785,0-1.531,0.139-2.234,0.415
		c-0.705,0.277-1.324,0.683-1.859,1.217c-0.535,0.535-0.959,1.208-1.271,2.02s-0.467,1.752-0.467,2.822v17.255h-4.764v-17.255
		c0-2.176-0.438-3.799-1.311-4.869c-0.873-1.07-2.148-1.605-3.826-1.605c-1.176,0-2.268,0.317-3.277,0.95
		c-1.006,0.633-1.93,1.494-2.768,2.582v20.198H705.736z"/>
	<path fill="#FFFFFF" d="M117.133,545.416v-23.034l-2.997-0.348c-0.374-0.089-0.682-0.227-0.922-0.415
		c-0.241-0.187-0.361-0.459-0.361-0.816v-1.953h4.281v-2.622c0-1.552,0.218-2.929,0.655-4.133c0.437-1.203,1.061-2.22,1.873-3.049
		c0.812-0.83,1.788-1.458,2.93-1.887c1.141-0.427,2.425-0.642,3.852-0.642c1.213,0,2.336,0.179,3.371,0.535l-0.106,2.381
		c-0.018,0.357-0.17,0.571-0.455,0.643c-0.286,0.071-0.687,0.107-1.204,0.107h-0.829c-0.82,0-1.565,0.106-2.234,0.32
		c-0.669,0.215-1.244,0.563-1.726,1.044c-0.481,0.481-0.852,1.115-1.11,1.9c-0.259,0.785-0.388,1.756-0.388,2.915v2.488h7.838v3.452
		h-7.678v23.114H117.133z"/>
	<path fill="#FFFFFF" d="M145.062,517.887c1.98,0,3.768,0.33,5.364,0.99c1.596,0.66,2.952,1.596,4.066,2.809
		c1.115,1.213,1.971,2.68,2.569,4.401c0.597,1.721,0.896,3.643,0.896,5.766c0,2.14-0.299,4.065-0.896,5.777
		c-0.598,1.713-1.454,3.176-2.569,4.388c-1.114,1.214-2.47,2.146-4.066,2.797c-1.597,0.649-3.384,0.977-5.364,0.977
		c-1.979,0-3.768-0.327-5.364-0.977c-1.596-0.651-2.957-1.583-4.08-2.797c-1.124-1.212-1.989-2.675-2.595-4.388
		c-0.607-1.712-0.91-3.637-0.91-5.777c0-2.123,0.303-4.044,0.91-5.766c0.606-1.721,1.472-3.188,2.595-4.401
		c1.123-1.213,2.483-2.149,4.08-2.809C141.294,518.217,143.082,517.887,145.062,517.887z M145.062,542.072
		c2.675,0,4.673-0.896,5.993-2.688c1.32-1.793,1.979-4.295,1.979-7.504c0-3.229-0.66-5.743-1.979-7.544
		c-1.32-1.802-3.317-2.703-5.993-2.703c-1.356,0-2.533,0.232-3.531,0.696c-0.999,0.463-1.833,1.133-2.501,2.007
		c-0.669,0.874-1.168,1.948-1.498,3.223c-0.33,1.275-0.495,2.716-0.495,4.321c0,1.604,0.165,3.041,0.495,4.307
		c0.33,1.266,0.829,2.332,1.498,3.197c0.669,0.865,1.502,1.53,2.501,1.992C142.529,541.841,143.706,542.072,145.062,542.072z"/>
	<path fill="#FFFFFF" d="M163.843,545.416v-27.101h2.729c0.517,0,0.874,0.099,1.07,0.294c0.196,0.196,0.33,0.535,0.401,1.016
		l0.321,4.227c0.927-1.89,2.074-3.367,3.438-4.427s2.965-1.592,4.802-1.592c0.749,0,1.426,0.084,2.033,0.253
		c0.606,0.171,1.168,0.407,1.686,0.709l-0.615,3.559c-0.125,0.446-0.401,0.668-0.83,0.668c-0.25,0-0.633-0.084-1.15-0.253
		c-0.518-0.169-1.24-0.254-2.167-0.254c-1.659,0-3.045,0.481-4.16,1.445c-1.115,0.962-2.046,2.363-2.796,4.2v17.255H163.843z"/>
	<path fill="#FFFFFF" d="M185.405,545.416v-27.101h2.835c0.678,0,1.105,0.33,1.284,0.99l0.348,2.782
		c0.999-1.23,2.118-2.238,3.357-3.023c1.24-0.785,2.679-1.177,4.321-1.177c1.836,0,3.321,0.509,4.454,1.525
		c1.132,1.016,1.948,2.39,2.448,4.12c0.375-0.98,0.869-1.829,1.485-2.542c0.615-0.714,1.306-1.303,2.073-1.766
		c0.767-0.464,1.583-0.802,2.448-1.017c0.865-0.214,1.743-0.321,2.635-0.321c1.427,0,2.698,0.227,3.813,0.683
		c1.114,0.455,2.06,1.119,2.836,1.994c0.776,0.874,1.369,1.947,1.779,3.223s0.615,2.734,0.615,4.375v17.255h-4.762v-17.255
		c0-2.122-0.464-3.732-1.391-4.829c-0.928-1.096-2.274-1.646-4.04-1.646c-0.786,0-1.53,0.139-2.234,0.415
		c-0.705,0.277-1.324,0.683-1.859,1.218c-0.535,0.535-0.959,1.208-1.271,2.02c-0.312,0.812-0.468,1.752-0.468,2.823v17.255h-4.762
		v-17.255c0-2.175-0.438-3.799-1.311-4.869c-0.875-1.07-2.15-1.605-3.826-1.605c-1.177,0-2.27,0.317-3.277,0.951
		c-1.008,0.632-1.931,1.493-2.77,2.582v20.198H185.405z"/>
	<path fill="#FFFFFF" d="M249.237,545.416h-2.113c-0.464,0-0.839-0.071-1.124-0.214c-0.285-0.142-0.473-0.444-0.562-0.909
		l-0.535-2.515c-0.713,0.643-1.409,1.216-2.087,1.726c-0.678,0.509-1.391,0.936-2.14,1.283c-0.75,0.349-1.548,0.611-2.395,0.789
		c-0.848,0.18-1.789,0.269-2.823,0.269c-1.053,0-2.038-0.148-2.956-0.442c-0.918-0.295-1.717-0.738-2.395-1.329
		c-0.678-0.592-1.217-1.339-1.618-2.241c-0.401-0.905-0.602-1.975-0.602-3.209c0-1.074,0.294-2.107,0.883-3.101
		c0.589-0.994,1.538-1.875,2.85-2.645c1.311-0.77,3.027-1.4,5.149-1.892c2.122-0.493,4.718-0.738,7.785-0.738v-2.127
		c0-2.118-0.451-3.72-1.351-4.805c-0.901-1.086-2.234-1.63-4-1.63c-1.16,0-2.136,0.148-2.929,0.441
		c-0.794,0.294-1.481,0.625-2.06,0.991c-0.58,0.366-1.08,0.695-1.498,0.989c-0.419,0.294-0.834,0.441-1.244,0.441
		c-0.321,0-0.602-0.084-0.843-0.255c-0.241-0.169-0.433-0.378-0.575-0.628l-0.856-1.525c1.498-1.444,3.112-2.523,4.842-3.237
		c1.73-0.712,3.647-1.069,5.752-1.069c1.515,0,2.862,0.25,4.039,0.749c1.178,0.5,2.167,1.195,2.97,2.087s1.409,1.971,1.819,3.237
		c0.41,1.267,0.615,2.657,0.615,4.173V545.416z M236.877,542.501c0.838,0,1.604-0.084,2.3-0.256c0.696-0.169,1.351-0.409,1.966-0.72
		c0.615-0.314,1.204-0.692,1.766-1.139c0.562-0.445,1.11-0.954,1.645-1.525v-5.591c-2.194,0-4.058,0.139-5.591,0.417
		c-1.534,0.279-2.783,0.641-3.745,1.089c-0.963,0.449-1.664,0.978-2.1,1.587c-0.438,0.61-0.656,1.292-0.656,2.045
		c0,0.718,0.116,1.336,0.348,1.857c0.232,0.52,0.544,0.947,0.937,1.278c0.392,0.331,0.856,0.573,1.391,0.728
		C235.673,542.426,236.252,542.501,236.877,542.501z"/>
	<path fill="#FFFFFF" d="M264.673,545.845c-2.14,0-3.786-0.598-4.936-1.792c-1.15-1.196-1.726-2.917-1.726-5.165v-16.586h-3.264
		c-0.285,0-0.526-0.084-0.722-0.254c-0.196-0.169-0.294-0.433-0.294-0.79v-1.898l4.441-0.563l1.097-8.374
		c0.036-0.267,0.151-0.485,0.348-0.656c0.195-0.169,0.445-0.253,0.749-0.253h2.408v9.336h7.758v3.452h-7.758v16.266
		c0,1.141,0.276,1.99,0.829,2.542c0.553,0.554,1.267,0.829,2.14,0.829c0.5,0,0.931-0.066,1.298-0.2
		c0.365-0.133,0.683-0.28,0.95-0.442c0.267-0.16,0.495-0.307,0.683-0.44c0.187-0.133,0.351-0.2,0.494-0.2
		c0.25,0,0.474,0.151,0.669,0.454l1.392,2.274c-0.82,0.767-1.811,1.37-2.971,1.806C267.099,545.625,265.903,545.845,264.673,545.845
		z"/>
	<path fill="#FFFFFF" d="M287.385,517.887c1.979,0,3.767,0.33,5.363,0.99c1.596,0.66,2.953,1.596,4.066,2.809
		c1.114,1.213,1.97,2.68,2.568,4.401s0.896,3.643,0.896,5.766c0,2.14-0.298,4.065-0.896,5.777c-0.598,1.713-1.454,3.176-2.568,4.388
		c-1.114,1.214-2.47,2.146-4.066,2.797c-1.597,0.649-3.384,0.977-5.363,0.977c-1.98,0-3.769-0.327-5.364-0.977
		c-1.597-0.651-2.956-1.583-4.08-2.797c-1.124-1.212-1.989-2.675-2.595-4.388c-0.607-1.712-0.911-3.637-0.911-5.777
		c0-2.123,0.303-4.044,0.911-5.766c0.605-1.721,1.471-3.188,2.595-4.401s2.483-2.149,4.08-2.809
		C283.617,518.217,285.405,517.887,287.385,517.887z M287.385,542.072c2.675,0,4.672-0.896,5.992-2.688
		c1.32-1.793,1.979-4.295,1.979-7.504c0-3.229-0.659-5.743-1.979-7.544c-1.32-1.802-3.317-2.703-5.992-2.703
		c-1.356,0-2.532,0.232-3.532,0.696s-1.832,1.133-2.501,2.007c-0.668,0.874-1.168,1.948-1.498,3.223
		c-0.331,1.275-0.496,2.716-0.496,4.321c0,1.604,0.165,3.041,0.496,4.307c0.329,1.266,0.83,2.332,1.498,3.197
		c0.669,0.865,1.502,1.53,2.501,1.992C284.853,541.841,286.029,542.072,287.385,542.072z"/>
	<path fill="#FFFFFF" d="M331.66,532.173c0,2.14-0.262,4.058-0.79,5.752c-0.527,1.694-1.301,3.126-2.328,4.293
		c-1.025,1.17-2.287,2.065-3.786,2.69c-1.498,0.622-3.22,0.936-5.163,0.936c-1.729,0-3.531-0.251-5.403-0.749
		c0.036-0.518,0.08-1.029,0.133-1.538c0.054-0.51,0.107-1.012,0.16-1.513c0.036-0.302,0.147-0.547,0.335-0.735
		c0.188-0.188,0.468-0.28,0.842-0.28c0.321,0,0.749,0.08,1.284,0.24c0.535,0.16,1.248,0.242,2.14,0.242
		c1.177,0,2.225-0.181,3.143-0.536c0.918-0.355,1.694-0.909,2.328-1.659c0.634-0.749,1.114-1.708,1.445-2.876
		c0.329-1.168,0.495-2.556,0.495-4.16v-25.202h5.163V532.173z"/>
	<path fill="#FFFFFF" d="M346.694,531.077v14.339h-5.164v-38.337h11.316c2.426,0,4.535,0.281,6.328,0.843
		c1.792,0.563,3.276,1.361,4.454,2.395c1.177,1.034,2.056,2.284,2.636,3.746c0.58,1.462,0.87,3.094,0.87,4.895
		c0,1.784-0.313,3.416-0.938,4.896c-0.624,1.48-1.537,2.756-2.741,3.827c-1.204,1.069-2.698,1.903-4.481,2.501
		c-1.783,0.597-3.826,0.896-6.127,0.896H346.694z M346.694,526.957h6.152c1.481,0,2.787-0.197,3.92-0.589
		c1.132-0.392,2.083-0.94,2.85-1.646c0.766-0.704,1.346-1.546,1.739-2.528c0.393-0.98,0.588-2.06,0.588-3.237
		c0-2.443-0.753-4.352-2.26-5.725c-1.508-1.373-3.786-2.06-6.836-2.06h-6.152V526.957z"/>
	<path fill="#FFFFFF" d="M390.782,541.645c1.034,0,1.985-0.049,2.85-0.146s1.681-0.246,2.448-0.442
		c0.766-0.195,1.488-0.431,2.167-0.709c0.677-0.276,1.355-0.592,2.033-0.95v-8.455h-5.938c-0.339,0-0.612-0.098-0.816-0.293
		c-0.206-0.197-0.308-0.437-0.308-0.723v-2.943h11.771v14.715c-0.963,0.696-1.967,1.301-3.01,1.819
		c-1.044,0.518-2.158,0.949-3.344,1.298c-1.187,0.347-2.457,0.605-3.813,0.774c-1.356,0.171-2.827,0.255-4.415,0.255
		c-2.783,0-5.333-0.478-7.651-1.432c-2.319-0.954-4.317-2.292-5.993-4.013c-1.677-1.721-2.983-3.786-3.919-6.193
		c-0.936-2.408-1.404-5.056-1.404-7.946c0-2.925,0.459-5.591,1.377-7.999c0.918-2.407,2.229-4.472,3.932-6.193
		c1.703-1.721,3.763-3.054,6.18-4c2.417-0.945,5.124-1.416,8.12-1.416c1.516,0,2.925,0.111,4.227,0.333
		c1.302,0.223,2.51,0.544,3.624,0.962c1.115,0.42,2.145,0.927,3.091,1.525c0.945,0.598,1.828,1.271,2.648,2.02l-1.471,2.354
		c-0.304,0.482-0.696,0.723-1.177,0.723c-0.286,0-0.598-0.098-0.936-0.293c-0.447-0.25-0.946-0.554-1.499-0.909
		c-0.553-0.358-1.227-0.701-2.021-1.031c-0.793-0.33-1.729-0.61-2.809-0.843c-1.079-0.232-2.358-0.348-3.839-0.348
		c-2.158,0-4.111,0.353-5.859,1.057c-1.748,0.705-3.236,1.712-4.467,3.023c-1.23,1.311-2.177,2.898-2.836,4.762
		c-0.661,1.864-0.991,3.956-0.991,6.273c0,2.426,0.344,4.588,1.031,6.488c0.686,1.899,1.654,3.509,2.902,4.828
		c1.249,1.322,2.729,2.329,4.44,3.023C386.823,541.296,388.713,541.645,390.782,541.645z"/>
	<path fill="#FFFFFF" d="M410.82,542.125c0-0.409,0.076-0.798,0.228-1.163c0.151-0.365,0.365-0.687,0.641-0.963
		c0.277-0.275,0.61-0.496,1.003-0.656s0.82-0.24,1.285-0.24c0.535,0,1.012,0.098,1.431,0.293c0.419,0.196,0.768,0.469,1.043,0.816
		c0.277,0.347,0.486,0.75,0.629,1.203c0.142,0.456,0.214,0.951,0.214,1.485c0,0.803-0.117,1.637-0.348,2.501
		c-0.232,0.865-0.563,1.722-0.991,2.568c-0.428,0.848-0.958,1.672-1.592,2.475c-0.633,0.803-1.351,1.543-2.154,2.222l-0.803-0.776
		c-0.231-0.213-0.347-0.465-0.347-0.749c0-0.231,0.125-0.474,0.374-0.723c0.179-0.196,0.406-0.458,0.683-0.789
		c0.277-0.329,0.557-0.71,0.843-1.137c0.286-0.429,0.548-0.9,0.789-1.419c0.242-0.518,0.415-1.069,0.521-1.658h-0.348
		c-0.464,0-0.883-0.08-1.257-0.24c-0.374-0.16-0.7-0.389-0.977-0.683c-0.276-0.293-0.49-0.643-0.641-1.043
		C410.896,543.048,410.82,542.607,410.82,542.125z"/>
	<path fill="#FFFFFF" d="M440.328,531.077v14.339h-5.164v-38.337h11.316c2.426,0,4.535,0.281,6.328,0.843
		c1.792,0.563,3.276,1.361,4.454,2.395c1.177,1.034,2.056,2.284,2.636,3.746c0.58,1.462,0.87,3.094,0.87,4.895
		c0,1.784-0.313,3.416-0.937,4.896c-0.624,1.48-1.538,2.756-2.742,3.827c-1.204,1.069-2.698,1.903-4.481,2.501
		c-1.783,0.597-3.826,0.896-6.126,0.896H440.328z M440.328,526.957h6.152c1.48,0,2.787-0.197,3.92-0.589
		c1.131-0.392,2.082-0.94,2.849-1.646c0.766-0.704,1.346-1.546,1.739-2.528c0.393-0.98,0.588-2.06,0.588-3.237
		c0-2.443-0.753-4.352-2.26-5.725c-1.508-1.373-3.786-2.06-6.836-2.06h-6.152V526.957z"/>
	<path fill="#FFFFFF" d="M471.026,507.252c0.222,0.117,0.477,0.354,0.762,0.709l22.205,28.894c-0.053-0.463-0.09-0.914-0.106-1.352
		c-0.018-0.437-0.027-0.86-0.027-1.271v-27.154h4.548v38.337h-2.623c-0.411,0-0.754-0.071-1.03-0.214
		c-0.276-0.142-0.549-0.382-0.816-0.723l-22.178-28.867c0.036,0.447,0.062,0.884,0.08,1.312c0.018,0.428,0.026,0.82,0.026,1.176
		v27.315h-4.548v-38.337h2.676C470.46,507.079,470.802,507.137,471.026,507.252z"/>
	<path fill="#FFFFFF" d="M524.866,541.645c1.034,0,1.984-0.049,2.85-0.146c0.864-0.098,1.681-0.246,2.448-0.442
		c0.766-0.195,1.488-0.431,2.166-0.709c0.678-0.276,1.355-0.592,2.033-0.95v-8.455h-5.938c-0.339,0-0.611-0.098-0.816-0.293
		c-0.205-0.197-0.308-0.437-0.308-0.723v-2.943h11.771v14.715c-0.963,0.696-1.967,1.301-3.01,1.819
		c-1.044,0.518-2.158,0.949-3.344,1.298c-1.187,0.347-2.457,0.605-3.813,0.774c-1.356,0.171-2.827,0.255-4.415,0.255
		c-2.782,0-5.333-0.478-7.65-1.432c-2.319-0.954-4.317-2.292-5.993-4.013c-1.677-1.721-2.983-3.786-3.919-6.193
		c-0.936-2.408-1.404-5.056-1.404-7.946c0-2.925,0.459-5.591,1.377-7.999c0.918-2.407,2.229-4.472,3.932-6.193
		c1.703-1.721,3.764-3.054,6.18-4c2.417-0.945,5.124-1.416,8.12-1.416c1.516,0,2.925,0.111,4.228,0.333
		c1.302,0.223,2.51,0.544,3.624,0.962c1.115,0.42,2.145,0.927,3.091,1.525c0.944,0.598,1.827,1.271,2.647,2.02l-1.471,2.354
		c-0.304,0.482-0.696,0.723-1.177,0.723c-0.286,0-0.599-0.098-0.937-0.293c-0.447-0.25-0.946-0.554-1.499-0.909
		c-0.552-0.358-1.226-0.701-2.02-1.031s-1.729-0.61-2.81-0.843c-1.078-0.232-2.357-0.348-3.839-0.348
		c-2.157,0-4.111,0.353-5.858,1.057c-1.748,0.705-3.236,1.712-4.467,3.023c-1.231,1.311-2.177,2.898-2.836,4.762
		c-0.661,1.864-0.991,3.956-0.991,6.273c0,2.426,0.344,4.588,1.031,6.488c0.686,1.899,1.654,3.509,2.902,4.828
		c1.248,1.322,2.729,2.329,4.44,3.023C520.907,541.296,522.796,541.645,524.866,541.645z"/>
</g>
<path fill="#2E3192" d="M132.325,628.513c-7.257,0-13.144,5.889-13.144,13.145v96.39c0,7.255,5.887,13.143,13.144,13.143h113.914
	c7.256,0,13.144-5.888,13.144-13.143v-96.39c0-7.256-5.888-13.145-13.144-13.145H132.325z M132.325,637.277h29.026
	c0.903,0,1.643,0.737,1.643,1.642v5.477c0,0.903-0.739,1.643-1.643,1.643h-31.764c-0.904,0-1.643-0.739-1.643-1.643v-2.738
	C127.943,639.248,129.915,637.277,132.325,637.277z M248.977,663.563h-119.39c-0.904,0-1.643-0.739-1.643-1.643v-9.856
	c0-0.904,0.739-1.645,1.643-1.645h37.788l8.27-12.405c0.301-0.464,0.822-0.737,1.369-0.737h69.225c2.41,0,4.381,1.971,4.381,4.38
	v20.264C250.62,662.824,249.879,663.563,248.977,663.563z M189.281,735.855c-18.128,0-32.86-14.733-32.86-32.859
	c0-18.128,14.732-32.859,32.86-32.859s32.86,14.731,32.86,32.859C222.142,721.122,207.409,735.855,189.281,735.855z
	 M189.281,678.897c-13.281,0-24.097,10.817-24.097,24.099c0,13.279,10.816,24.096,24.097,24.096
	c13.28,0,24.097-10.816,24.097-24.096C213.378,689.715,202.562,678.897,189.281,678.897z M176.137,707.377
	c-2.41,0-4.381-1.972-4.381-4.381c0-9.666,7.859-17.525,17.525-17.525c2.41,0,4.381,1.971,4.381,4.381
	c0,2.409-1.972,4.382-4.381,4.382c-4.819,0-8.763,3.943-8.763,8.763C180.519,705.405,178.547,707.377,176.137,707.377z"/>
</svg>
