<?xml version="1.0" encoding="utf-8"?>
<!-- Generator: Adobe Illustrator 16.0.0, SVG Export Plug-In . SVG Version: 6.00 Build 0)  -->
<!DOCTYPE svg PUBLIC "-//W3C//DTD SVG 1.1//EN" "http://www.w3.org/Graphics/SVG/1.1/DTD/svg11.dtd">
<svg version="1.1" id="Layer_1" xmlns="http://www.w3.org/2000/svg" xmlns:xlink="http://www.w3.org/1999/xlink" x="0px" y="0px"
	 width="1080px" height="1080px" viewBox="0 0 1080 1080" enable-background="new 0 0 1080 1080" xml:space="preserve">
<g>
	<path fill="#FF0000" d="M1021,834c0,82.5-67.5,150-150,150H242c-82.5,0-150-67.5-150-150V214c0-82.5,67.5-150,150-150h629
		c82.5,0,150,67.5,150,150V834z"/>
</g>
<path fill="#F15A24" d="M1228.662,577.418c-23.354,0-42.301,18.946-42.301,42.302v310.204c0,23.353,18.947,42.3,42.301,42.3h366.605
	c23.354,0,42.301-18.947,42.301-42.3V619.72c0-23.355-18.947-42.302-42.301-42.302H1228.662z M1228.662,605.618h93.414
	c2.908,0,5.287,2.38,5.287,5.287v17.626c0,2.908-2.379,5.288-5.287,5.288H1219.85c-2.908,0-5.288-2.38-5.288-5.288v-8.812
	C1214.562,611.964,1220.906,605.618,1228.662,605.618z M1604.08,690.221h-384.23c-2.908,0-5.288-2.38-5.288-5.288v-31.725
	c0-2.908,2.38-5.288,5.288-5.288h121.613l26.614-39.922c0.97-1.498,2.646-2.38,4.407-2.38h222.783c7.756,0,14.1,6.346,14.1,14.102
	v65.213C1609.367,687.841,1606.988,690.221,1604.08,690.221z M1411.965,922.873c-58.34,0-105.752-47.413-105.752-105.75
	c0-58.342,47.412-105.753,105.752-105.753s105.752,47.411,105.752,105.753C1517.717,875.46,1470.305,922.873,1411.965,922.873z
	 M1411.965,739.571c-42.741,0-77.551,34.81-77.551,77.552c0,42.739,34.81,77.549,77.551,77.549c42.74,0,77.551-34.81,77.551-77.549
	C1489.516,774.381,1454.705,739.571,1411.965,739.571z M1369.664,831.222c-7.756,0-14.1-6.346-14.1-14.099
	c0-31.108,25.291-56.401,56.4-56.401c7.755,0,14.1,6.344,14.1,14.101c0,7.754-6.345,14.1-14.1,14.1
	c-15.51,0-28.201,12.689-28.201,28.201C1383.764,824.876,1377.42,831.222,1369.664,831.222z"/>
<path fill="#F7931E" d="M1739.285,578.149c-23.354,0-42.301,18.947-42.301,42.3v310.205c0,23.353,18.947,42.302,42.301,42.302
	h366.605c23.355,0,42.301-18.949,42.301-42.302V620.449c0-23.353-18.945-42.3-42.301-42.3H1739.285z M1739.285,606.351h93.414
	c2.908,0,5.289,2.379,5.289,5.287v17.626c0,2.907-2.381,5.287-5.289,5.287h-102.227c-2.908,0-5.287-2.38-5.287-5.287v-8.814
	C1725.186,612.694,1731.529,606.351,1739.285,606.351z M2114.703,690.952h-384.23c-2.908,0-5.287-2.379-5.287-5.289v-31.726
	c0-2.907,2.379-5.287,5.287-5.287h121.613l26.615-39.921c0.969-1.498,2.645-2.379,4.406-2.379h222.783
	c7.756,0,14.1,6.344,14.1,14.099v65.214C2119.99,688.573,2117.611,690.952,2114.703,690.952z M1922.588,923.605
	c-58.338,0-105.752-47.413-105.752-105.751c0-58.341,47.414-105.752,105.752-105.752c58.34,0,105.752,47.411,105.752,105.752
	C2028.34,876.192,1980.928,923.605,1922.588,923.605z M1922.588,740.302c-42.74,0-77.549,34.81-77.549,77.553
	c0,42.74,34.809,77.55,77.549,77.55s77.551-34.81,77.551-77.55C2000.139,775.111,1965.328,740.302,1922.588,740.302z
	 M1880.287,831.954c-7.756,0-14.1-6.346-14.1-14.1c0-31.11,25.291-56.403,56.4-56.403c7.756,0,14.1,6.346,14.1,14.102
	s-6.344,14.1-14.1,14.1c-15.51,0-28.199,12.691-28.199,28.202C1894.389,825.608,1888.043,831.954,1880.287,831.954z"/>
<path fill="#39B54A" d="M1228.662,111.218c-23.354,0-42.301,18.947-42.301,42.301v310.204c0,23.353,18.947,42.301,42.301,42.301
	h366.605c23.354,0,42.301-18.948,42.301-42.301V153.519c0-23.354-18.947-42.301-42.301-42.301H1228.662z M1228.662,139.419h93.414
	c2.908,0,5.287,2.379,5.287,5.287v17.625c0,2.908-2.379,5.288-5.287,5.288H1219.85c-2.908,0-5.288-2.379-5.288-5.288v-8.812
	C1214.562,145.763,1220.906,139.419,1228.662,139.419z M1604.08,224.021h-384.23c-2.908,0-5.288-2.38-5.288-5.289v-31.725
	c0-2.907,2.38-5.287,5.288-5.287h121.613l26.614-39.921c0.97-1.498,2.646-2.379,4.407-2.379h222.783c7.756,0,14.1,6.344,14.1,14.1
	v65.213C1609.367,221.641,1606.988,224.021,1604.08,224.021z M1411.965,456.673c-58.34,0-105.752-47.412-105.752-105.75
	c0-58.341,47.412-105.751,105.752-105.751s105.752,47.411,105.752,105.751C1517.717,409.261,1470.305,456.673,1411.965,456.673z
	 M1411.965,273.37c-42.741,0-77.551,34.81-77.551,77.552c0,42.74,34.81,77.551,77.551,77.551c42.74,0,77.551-34.811,77.551-77.551
	C1489.516,308.18,1454.705,273.37,1411.965,273.37z M1369.664,365.022c-7.756,0-14.1-6.345-14.1-14.1
	c0-31.109,25.291-56.402,56.4-56.402c7.755,0,14.1,6.346,14.1,14.101c0,7.754-6.345,14.1-14.1,14.1
	c-15.51,0-28.201,12.691-28.201,28.201C1383.764,358.677,1377.42,365.022,1369.664,365.022z"/>
<path fill="#29ABE2" d="M1739.285,111.949c-23.354,0-42.301,18.947-42.301,42.301v310.205c0,23.353,18.947,42.3,42.301,42.3h366.605
	c23.355,0,42.301-18.948,42.301-42.3V154.25c0-23.354-18.945-42.301-42.301-42.301H1739.285z M1739.285,140.151h93.414
	c2.908,0,5.289,2.379,5.289,5.287v17.625c0,2.908-2.381,5.287-5.289,5.287h-102.227c-2.908,0-5.287-2.379-5.287-5.287v-8.813
	C1725.186,146.495,1731.529,140.151,1739.285,140.151z M2114.703,224.752h-384.23c-2.908,0-5.287-2.38-5.287-5.289v-31.725
	c0-2.908,2.379-5.287,5.287-5.287h121.613l26.615-39.921c0.969-1.499,2.645-2.379,4.406-2.379h222.783c7.756,0,14.1,6.344,14.1,14.1
	v65.213C2119.99,222.372,2117.611,224.752,2114.703,224.752z M1922.588,457.404c-58.338,0-105.752-47.412-105.752-105.75
	c0-58.341,47.414-105.752,105.752-105.752c58.34,0,105.752,47.411,105.752,105.752
	C2028.34,409.992,1980.928,457.404,1922.588,457.404z M1922.588,274.102c-42.74,0-77.549,34.81-77.549,77.552
	c0,42.74,34.809,77.551,77.549,77.551s77.551-34.811,77.551-77.551C2000.139,308.911,1965.328,274.102,1922.588,274.102z
	 M1880.287,365.754c-7.756,0-14.1-6.346-14.1-14.1c0-31.108,25.291-56.401,56.4-56.401c7.756,0,14.1,6.345,14.1,14.101
	c0,7.755-6.344,14.1-14.1,14.1c-15.51,0-28.199,12.69-28.199,28.201C1894.389,359.408,1888.043,365.754,1880.287,365.754z"/>
<circle fill="#FFFFFF" cx="837.454" cy="304.363" r="59.091"/>
<path fill="#FFFFFF" d="M552.546,309.772C417.487,309.772,308,419.26,308,554.317c0,135.06,109.487,244.546,244.546,244.546
	s244.545-109.486,244.545-244.546C797.091,419.26,687.604,309.772,552.546,309.772z M552.546,757.046
	c-111.964,0-202.728-90.764-202.728-202.729c0-111.963,90.764-202.727,202.728-202.727s202.728,90.764,202.728,202.727
	C755.273,666.282,664.51,757.046,552.546,757.046z"/>
</svg>
